<svg width="443" height="443" viewBox="0 0 443 443" fill="none" xmlns="http://www.w3.org/2000/svg">
<circle cx="221.891" cy="221.891" r="221.109" fill="url(#paint0_angular_825_432)"/>
<path d="M181.114 364.843L181.052 364.904L180.995 364.968C174.017 372.735 165.053 376.178 155.358 379.901C154.385 380.275 153.405 380.651 152.418 381.035C152.073 381.17 151.711 381.267 151.185 381.41C151.042 381.449 150.886 381.491 150.716 381.538C150.043 381.723 149.068 382.004 148.172 382.51C147.202 383.057 146.19 383.94 145.639 385.358C145.111 386.713 145.155 388.172 145.481 389.604C145.784 390.933 146.332 392.109 147.188 393.064C148.048 394.023 149.071 394.594 150.065 394.935C151.511 395.43 153.24 395.499 154.382 395.545C154.611 395.554 154.816 395.562 154.991 395.572C162.759 396.039 170.274 394.6 177.385 393.238C178.115 393.098 178.84 392.959 179.562 392.823C226.356 383.998 265.066 362.144 291.182 320.783C292.115 319.305 292.884 318.549 293.658 318.108C294.405 317.682 295.449 317.385 297.228 317.373C305.355 318.014 313.096 316.443 320.483 314.42C343.746 308.049 363.22 295.289 377.51 276.041C394.347 253.363 401.539 227.419 396.567 198.908C393.132 179.211 385.551 161.213 371.222 146.468C358.94 133.829 344.392 124.439 329.208 116.319C327.404 115.354 326.558 114.82 326.116 114.24C325.91 113.97 325.554 113.423 326.023 111.674C331.199 92.3685 332.077 72.806 328.416 53.0656L325.466 53.6126L328.416 53.0656C328.305 52.4708 328.262 51.8148 328.203 50.933L328.192 50.7574C328.133 49.8793 328.053 48.7464 327.792 47.6527C327.522 46.5259 327.017 45.2397 325.967 44.1419C324.894 43.0187 323.484 42.3355 321.834 42.0245C320.117 41.7007 318.488 41.8413 317.041 42.5857C315.635 43.3091 314.739 44.4306 314.139 45.4269C313.596 46.3296 313.183 47.3321 312.87 48.0924C312.849 48.1434 312.828 48.1933 312.808 48.2421C312.445 49.1211 312.193 49.6957 311.916 50.1265C311.625 50.5781 311.4 51.0237 311.231 51.3703C311.167 51.5021 311.114 51.614 311.066 51.714C310.969 51.9154 310.896 52.0687 310.806 52.2401C300.119 72.4884 286.535 87.806 269.995 98.125C253.461 108.44 233.803 113.866 210.799 114.075C195.54 114.214 180.299 114.183 165.038 114.152C156.38 114.134 147.716 114.116 139.039 114.13C136.278 114.134 133.995 114.344 130.934 114.714C104.889 117.863 88.259 130.316 73.2066 148.428C54.2569 171.23 44.6959 196.919 48.2977 227.119C54.4293 278.53 98.4247 316.891 149.332 317.352C159.094 317.441 168.875 317.415 178.637 317.389C184.047 317.375 189.451 317.361 194.842 317.366C196.969 317.368 198.395 317.435 199.389 317.61C200.182 317.749 200.426 317.913 200.469 317.948C200.502 318 200.631 318.251 200.687 318.992C200.762 319.973 200.684 321.379 200.457 323.486C198.749 339.375 192.834 353.215 181.114 364.843ZM112.108 241.573C110.781 240.051 108.997 236.781 107.348 233.01C105.769 229.399 104.502 225.767 103.996 223.554C103.43 217.506 103.262 213.424 103.652 209.583C104.042 205.732 105.01 201.982 106.888 196.633C113.614 177.479 133.584 169.495 153.917 172.829C169.554 175.393 180.296 185.071 185.334 199.684C190.978 216.053 189.29 231.782 177.001 244.842C168.646 253.721 158.078 256.593 145.245 256.579C131.45 256.563 120.889 251.644 112.108 241.573ZM333.393 189.732C344.193 204.515 344.531 224.494 334.109 240.47C325.459 249.965 316.816 256.003 304.978 256.41C292.048 256.854 280.783 255.893 271.386 247.337C262.424 239.178 260.111 228.316 258.765 216.133C257.699 195.21 268.398 180.836 281.867 175.43C301.073 167.721 321.79 173.85 333.393 189.732Z" fill="#110A2B" stroke="url(#paint1_linear_825_432)" stroke-width="6"/>
<path d="M146.529 260.994C171.831 260.994 192.525 241.267 194.071 216.355C182.162 225.461 143.026 228.07 136.021 229.471C129.016 230.872 120.61 230.171 114.306 227.369C108.001 224.567 102.283 219.369 98.8945 213.359C98.8945 239.667 120.221 260.994 146.529 260.994Z" fill="url(#paint2_linear_825_432)"/>
<path d="M146.529 165.725C120.221 165.725 98.8945 187.051 98.8945 213.359C102.283 219.369 108.001 224.567 114.306 227.369C120.61 230.171 129.016 230.872 136.021 229.471C145.128 227.369 152.834 214.76 161.94 204.953C171.047 195.146 177.351 192.344 182.955 192.344C187.292 192.344 190.635 195.75 191.335 197.151C184.704 178.823 167.146 165.725 146.529 165.725Z" fill="url(#paint3_linear_825_432)"/>
<path d="M194.071 216.355C194.132 215.364 194.164 214.365 194.164 213.359C194.164 207.668 193.166 202.211 191.335 197.151C190.635 195.75 187.292 192.344 182.955 192.344C177.351 192.344 171.047 195.146 161.94 204.953C152.834 214.76 145.128 227.369 136.021 229.471C143.026 228.07 182.162 225.461 194.071 216.355Z" fill="url(#paint4_linear_825_432)"/>
<path d="M142.434 213.55C134.43 224.566 119.99 227.72 110.181 220.594C100.373 213.467 98.9101 198.76 106.914 187.743C114.918 176.727 129.358 173.573 139.166 180.699C148.975 187.825 150.438 202.533 142.434 213.55Z" fill="url(#paint5_linear_825_432)"/>
<path d="M298.675 260.994C323.976 260.994 344.67 241.267 346.216 216.355C334.308 225.461 295.172 228.07 288.167 229.471C281.162 230.872 272.756 230.171 266.451 227.369C260.147 224.567 254.428 219.369 251.04 213.359C251.04 239.667 272.367 260.994 298.675 260.994Z" fill="url(#paint6_linear_825_432)"/>
<path d="M298.675 165.725C272.367 165.725 251.04 187.051 251.04 213.359C254.428 219.369 260.147 224.567 266.451 227.369C272.756 230.171 281.162 230.872 288.167 229.471C297.274 227.369 304.979 214.76 314.086 204.953C323.192 195.146 329.497 192.344 335.101 192.344C339.437 192.344 342.78 195.75 343.481 197.151C336.849 178.823 319.292 165.725 298.675 165.725Z" fill="url(#paint7_linear_825_432)"/>
<path d="M346.216 216.355C346.278 215.364 346.309 214.365 346.309 213.359C346.309 207.668 345.311 202.211 343.481 197.151C342.78 195.75 339.437 192.344 335.101 192.344C329.497 192.344 323.192 195.146 314.086 204.953C304.979 214.76 297.274 227.369 288.167 229.471C295.172 228.07 334.308 225.461 346.216 216.355Z" fill="url(#paint8_linear_825_432)"/>
<path d="M294.579 213.55C286.575 224.566 272.135 227.72 262.327 220.594C252.518 213.467 251.056 198.76 259.06 187.743C267.064 176.727 281.503 173.573 291.312 180.699C301.12 187.825 302.583 202.533 294.579 213.55Z" fill="url(#paint9_linear_825_432)"/>
<defs>
<radialGradient id="paint0_angular_825_432" cx="0" cy="0" r="1" gradientUnits="userSpaceOnUse" gradientTransform="translate(221.891 221.891) rotate(179.816) scale(221.111 221.109)">
<stop stop-color="white"/>
<stop offset="0.250475" stop-color="white"/>
<stop offset="0.26" stop-color="#D4D2E0"/>
<stop offset="0.915" stop-color="#D6D3E4"/>
</radialGradient>
<linearGradient id="paint1_linear_825_432" x1="76.8544" y1="56.2357" x2="357.685" y2="393.232" gradientUnits="userSpaceOnUse">
<stop stop-color="#D4D2E0"/>
<stop offset="1" stop-color="white"/>
</linearGradient>
<linearGradient id="paint2_linear_825_432" x1="146.529" y1="165.725" x2="146.529" y2="260.994" gradientUnits="userSpaceOnUse">
<stop stop-color="#8815D2"/>
<stop offset="1" stop-color="#8415DB"/>
</linearGradient>
<linearGradient id="paint3_linear_825_432" x1="146.529" y1="165.725" x2="146.529" y2="260.994" gradientUnits="userSpaceOnUse">
<stop stop-color="#FDB366"/>
<stop offset="1" stop-color="#FC8D59"/>
</linearGradient>
<linearGradient id="paint4_linear_825_432" x1="146.529" y1="165.725" x2="146.529" y2="260.994" gradientUnits="userSpaceOnUse">
<stop stop-color="#F7496C"/>
<stop offset="1" stop-color="#FB4470"/>
</linearGradient>
<linearGradient id="paint5_linear_825_432" x1="132.519" y1="175.532" x2="124.113" y2="223.867" gradientUnits="userSpaceOnUse">
<stop stop-color="#FDBC6B" stop-opacity="0"/>
<stop offset="0.695" stop-color="#FBE398"/>
</linearGradient>
<linearGradient id="paint6_linear_825_432" x1="298.675" y1="165.725" x2="298.675" y2="260.994" gradientUnits="userSpaceOnUse">
<stop stop-color="#8815D2"/>
<stop offset="1" stop-color="#8415DB"/>
</linearGradient>
<linearGradient id="paint7_linear_825_432" x1="298.675" y1="165.725" x2="298.675" y2="260.994" gradientUnits="userSpaceOnUse">
<stop stop-color="#FDB366"/>
<stop offset="1" stop-color="#FC8D59"/>
</linearGradient>
<linearGradient id="paint8_linear_825_432" x1="298.675" y1="165.725" x2="298.675" y2="260.994" gradientUnits="userSpaceOnUse">
<stop stop-color="#F7496C"/>
<stop offset="1" stop-color="#FB4470"/>
</linearGradient>
<linearGradient id="paint9_linear_825_432" x1="284.664" y1="175.532" x2="276.258" y2="223.867" gradientUnits="userSpaceOnUse">
<stop stop-color="#FDBC6B" stop-opacity="0"/>
<stop offset="0.695" stop-color="#FBE398"/>
</linearGradient>
</defs>
</svg>
