<svg width="51" height="58" viewBox="0 0 51 58" fill="none" xmlns="http://www.w3.org/2000/svg">
<path d="M0 15C0 6.71573 6.71573 0 15 0H36C44.2843 0 51 6.71573 51 15V43C51 51.2843 44.2843 58 36 58H15C6.71573 58 0 51.2843 0 43V15Z" fill="#CCCCCC" fill-opacity="0.75"/>
<path d="M16.0078 36.4855C16.0089 37.2029 16.7426 37.6859 17.4019 37.4032L34.8565 29.9191C35.6644 29.5727 35.6644 28.4273 34.8565 28.0809L17.4019 20.5968C16.7426 20.3141 16.0089 20.7971 16.0078 21.5145L16.0013 26.1232C16.0005 26.625 16.3717 27.0496 16.8691 27.1159L23.5658 28.0088C24.7229 28.1631 24.7229 29.8369 23.5658 29.9912L16.8691 30.8841C16.3717 30.9504 16.0005 31.375 16.0013 31.8768L16.0078 36.4855Z" fill="black"/>
</svg>
