<svg width="469" height="469" viewBox="0 0 469 469" fill="none" xmlns="http://www.w3.org/2000/svg">
<circle cx="234.5" cy="234.5" r="229.171" fill="#110A2B" stroke="url(#paint0_linear_825_393)" stroke-width="10"/>
<path d="M193.187 383.787L193.126 383.847L193.068 383.911C185.987 391.794 176.889 395.288 167.061 399.062C166.074 399.441 165.08 399.823 164.08 400.212C163.727 400.349 163.358 400.449 162.823 400.594C162.679 400.633 162.522 400.676 162.35 400.723C161.668 400.911 160.684 401.194 159.78 401.705C158.803 402.256 157.785 403.145 157.23 404.571C156.699 405.935 156.743 407.405 157.073 408.852C157.378 410.193 157.931 411.379 158.793 412.341C159.66 413.307 160.691 413.883 161.693 414.226C163.152 414.726 164.897 414.796 166.055 414.842C166.288 414.851 166.498 414.86 166.676 414.87C174.546 415.343 182.16 413.885 189.371 412.504C190.11 412.363 190.846 412.222 191.577 412.084C239.01 403.138 278.244 380.987 304.715 339.065C305.663 337.564 306.447 336.791 307.239 336.339C308.006 335.902 309.072 335.6 310.881 335.588C319.115 336.238 326.958 334.646 334.446 332.595C358.023 326.139 377.758 313.207 392.24 293.701C409.304 270.717 416.592 244.425 411.554 215.531C408.072 195.568 400.389 177.329 385.869 162.387C373.421 149.577 358.676 140.06 343.283 131.829C341.456 130.852 340.59 130.306 340.135 129.709C339.917 129.422 339.556 128.854 340.034 127.071C345.279 107.505 346.169 87.6777 342.459 67.6702C342.346 67.0648 342.302 66.3976 342.243 65.505L342.231 65.3252C342.171 64.4346 342.091 63.2894 341.826 62.1844C341.554 61.0464 341.045 59.75 339.987 58.644C338.906 57.5128 337.485 56.8235 335.819 56.5095C334.085 56.1825 332.444 56.325 330.986 57.0746C329.57 57.8031 328.666 58.9331 328.061 59.9396C327.512 60.8523 327.094 61.8663 326.776 62.6376L326.714 62.7882C326.346 63.6788 326.09 64.2649 325.806 64.7053C325.512 65.161 325.285 65.611 325.115 65.962C325.05 66.0949 324.996 66.2079 324.947 66.309C324.849 66.514 324.774 66.6704 324.682 66.8451C313.844 87.3791 300.068 102.915 283.292 113.381C266.521 123.844 246.584 129.346 223.255 129.558C207.785 129.699 192.332 129.667 176.859 129.636C168.082 129.618 159.298 129.6 150.501 129.614C147.704 129.618 145.391 129.831 142.288 130.206C115.897 133.396 99.045 146.015 83.7886 164.372C64.5826 187.482 54.894 213.516 58.5441 244.121C64.7581 296.223 109.345 335.1 160.936 335.567C170.833 335.657 180.749 335.631 190.645 335.605C196.131 335.59 201.61 335.576 207.077 335.581C209.233 335.583 210.682 335.651 211.694 335.829C212.18 335.914 212.473 336.011 212.643 336.087C212.723 336.123 212.768 336.152 212.789 336.166C212.8 336.174 212.806 336.179 212.809 336.182L212.812 336.184L212.813 336.185L212.813 336.185L212.815 336.187C212.815 336.188 212.816 336.19 212.818 336.192C212.82 336.195 212.822 336.199 212.825 336.204C212.828 336.209 212.832 336.217 212.837 336.226C212.849 336.25 212.865 336.286 212.884 336.34C212.94 336.502 213.007 336.788 213.044 337.268C213.12 338.267 213.04 339.696 212.81 341.832C211.077 357.949 205.078 371.99 193.187 383.787ZM123.165 258.807C121.816 257.259 120.005 253.938 118.333 250.115C116.731 246.451 115.445 242.765 114.932 240.518C114.357 234.384 114.186 230.242 114.582 226.343C114.979 222.434 115.96 218.629 117.865 213.204C124.694 193.759 144.964 185.661 165.591 189.044C181.461 191.646 192.363 201.468 197.476 216.298C203.202 232.905 201.49 248.869 189.018 262.123C180.537 271.136 169.81 274.05 156.792 274.035C142.795 274.019 132.076 269.027 123.165 258.807ZM347.579 206.197C358.54 221.2 358.882 241.476 348.305 257.687C339.531 267.319 330.758 273.451 318.738 273.864C305.628 274.315 294.192 273.34 284.652 264.655C275.554 256.372 273.208 245.345 271.843 232.991C270.761 211.761 281.617 197.171 295.29 191.683C314.78 183.86 335.804 190.08 347.579 206.197Z" fill="#110A2B"/>
<path d="M193.187 383.787L193.126 383.847L193.068 383.911C185.987 391.794 176.889 395.288 167.061 399.062C166.074 399.441 165.08 399.823 164.08 400.212C163.727 400.349 163.358 400.449 162.823 400.594C162.679 400.633 162.522 400.676 162.35 400.723C161.668 400.911 160.684 401.194 159.78 401.705C158.803 402.256 157.785 403.145 157.23 404.571C156.699 405.935 156.743 407.405 157.073 408.852C157.378 410.193 157.931 411.379 158.793 412.341C159.66 413.307 160.691 413.883 161.693 414.226C163.152 414.726 164.897 414.796 166.055 414.842C166.288 414.851 166.498 414.86 166.676 414.87C174.546 415.343 182.16 413.885 189.371 412.504C190.11 412.363 190.846 412.222 191.577 412.084C239.01 403.138 278.244 380.987 304.715 339.065C305.663 337.564 306.447 336.791 307.239 336.339C308.006 335.902 309.072 335.6 310.881 335.588C319.115 336.238 326.958 334.646 334.446 332.595C358.023 326.139 377.758 313.207 392.24 293.701C409.304 270.717 416.592 244.425 411.554 215.531C408.072 195.568 400.389 177.329 385.869 162.387C373.421 149.577 358.676 140.06 343.283 131.829C341.456 130.852 340.59 130.306 340.135 129.709C339.917 129.422 339.556 128.854 340.034 127.071C345.279 107.505 346.169 87.6777 342.459 67.6702C342.346 67.0648 342.302 66.3976 342.243 65.505L342.231 65.3252C342.171 64.4346 342.091 63.2894 341.826 62.1844C341.554 61.0464 341.045 59.75 339.987 58.644C338.906 57.5128 337.485 56.8235 335.819 56.5095C334.085 56.1825 332.444 56.325 330.986 57.0746C329.57 57.8031 328.666 58.9331 328.061 59.9396C327.512 60.8523 327.094 61.8663 326.776 62.6376L326.714 62.7882C326.346 63.6788 326.09 64.2649 325.806 64.7053C325.512 65.161 325.285 65.611 325.115 65.962C325.05 66.0949 324.996 66.2079 324.947 66.309C324.849 66.514 324.774 66.6704 324.682 66.8451C313.844 87.3791 300.068 102.915 283.292 113.381C266.521 123.844 246.584 129.346 223.255 129.558C207.785 129.699 192.332 129.667 176.859 129.636C168.082 129.618 159.298 129.6 150.501 129.614C147.704 129.618 145.391 129.831 142.288 130.206C115.897 133.396 99.045 146.015 83.7886 164.372C64.5826 187.482 54.894 213.516 58.5441 244.121C64.7581 296.223 109.345 335.1 160.936 335.567C170.833 335.657 180.749 335.631 190.645 335.605C196.131 335.59 201.61 335.576 207.077 335.581C209.233 335.583 210.682 335.651 211.694 335.829C212.18 335.914 212.473 336.011 212.643 336.087C212.723 336.123 212.768 336.152 212.789 336.166C212.8 336.174 212.806 336.179 212.809 336.182L212.812 336.184L212.813 336.185L212.813 336.185L212.815 336.187C212.815 336.188 212.816 336.19 212.818 336.192C212.82 336.195 212.822 336.199 212.825 336.204C212.828 336.209 212.832 336.217 212.837 336.226C212.849 336.25 212.865 336.286 212.884 336.34C212.94 336.502 213.007 336.788 213.044 337.268C213.12 338.267 213.04 339.696 212.81 341.832C211.077 357.949 205.078 371.99 193.187 383.787ZM123.165 258.807C121.816 257.259 120.005 253.938 118.333 250.115C116.731 246.451 115.445 242.765 114.932 240.518C114.357 234.384 114.186 230.242 114.582 226.343C114.979 222.434 115.96 218.629 117.865 213.204C124.694 193.759 144.964 185.661 165.591 189.044C181.461 191.646 192.363 201.468 197.476 216.298C203.202 232.905 201.49 248.869 189.018 262.123C180.537 271.136 169.81 274.05 156.792 274.035C142.795 274.019 132.076 269.027 123.165 258.807ZM347.579 206.197C358.54 221.2 358.882 241.476 348.305 257.687C339.531 267.319 330.758 273.451 318.738 273.864C305.628 274.315 294.192 273.34 284.652 264.655C275.554 256.372 273.208 245.345 271.843 232.991C270.761 211.761 281.617 197.171 295.29 191.683C314.78 183.86 335.804 190.08 347.579 206.197Z" fill="white"/>
<path d="M193.187 383.787L193.126 383.847L193.068 383.911C185.987 391.794 176.889 395.288 167.061 399.062C166.074 399.441 165.08 399.823 164.08 400.212C163.727 400.349 163.358 400.449 162.823 400.594C162.679 400.633 162.522 400.676 162.35 400.723C161.668 400.911 160.684 401.194 159.78 401.705C158.803 402.256 157.785 403.145 157.23 404.571C156.699 405.935 156.743 407.405 157.073 408.852C157.378 410.193 157.931 411.379 158.793 412.341C159.66 413.307 160.691 413.883 161.693 414.226C163.152 414.726 164.897 414.796 166.055 414.842C166.288 414.851 166.498 414.86 166.676 414.87C174.546 415.343 182.16 413.885 189.371 412.504C190.11 412.363 190.846 412.222 191.577 412.084C239.01 403.138 278.244 380.987 304.715 339.065C305.663 337.564 306.447 336.791 307.239 336.339C308.006 335.902 309.072 335.6 310.881 335.588C319.115 336.238 326.958 334.646 334.446 332.595C358.023 326.139 377.758 313.207 392.24 293.701C409.304 270.717 416.592 244.425 411.554 215.531C408.072 195.568 400.389 177.329 385.869 162.387C373.421 149.577 358.676 140.06 343.283 131.829C341.456 130.852 340.59 130.306 340.135 129.709C339.917 129.422 339.556 128.854 340.034 127.071C345.279 107.505 346.169 87.6777 342.459 67.6702C342.346 67.0648 342.302 66.3976 342.243 65.505L342.231 65.3252C342.171 64.4346 342.091 63.2894 341.826 62.1844C341.554 61.0464 341.045 59.75 339.987 58.644C338.906 57.5128 337.485 56.8235 335.819 56.5095C334.085 56.1825 332.444 56.325 330.986 57.0746C329.57 57.8031 328.666 58.9331 328.061 59.9396C327.512 60.8523 327.094 61.8663 326.776 62.6376L326.714 62.7882C326.346 63.6788 326.09 64.2649 325.806 64.7053C325.512 65.161 325.285 65.611 325.115 65.962C325.05 66.0949 324.996 66.2079 324.947 66.309C324.849 66.514 324.774 66.6704 324.682 66.8451C313.844 87.3791 300.068 102.915 283.292 113.381C266.521 123.844 246.584 129.346 223.255 129.558C207.785 129.699 192.332 129.667 176.859 129.636C168.082 129.618 159.298 129.6 150.501 129.614C147.704 129.618 145.391 129.831 142.288 130.206C115.897 133.396 99.045 146.015 83.7886 164.372C64.5826 187.482 54.894 213.516 58.5441 244.121C64.7581 296.223 109.345 335.1 160.936 335.567C170.833 335.657 180.749 335.631 190.645 335.605C196.131 335.59 201.61 335.576 207.077 335.581C209.233 335.583 210.682 335.651 211.694 335.829C212.18 335.914 212.473 336.011 212.643 336.087C212.723 336.123 212.768 336.152 212.789 336.166C212.8 336.174 212.806 336.179 212.809 336.182L212.812 336.184L212.813 336.185L212.813 336.185L212.815 336.187C212.815 336.188 212.816 336.19 212.818 336.192C212.82 336.195 212.822 336.199 212.825 336.204C212.828 336.209 212.832 336.217 212.837 336.226C212.849 336.25 212.865 336.286 212.884 336.34C212.94 336.502 213.007 336.788 213.044 337.268C213.12 338.267 213.04 339.696 212.81 341.832C211.077 357.949 205.078 371.99 193.187 383.787ZM123.165 258.807C121.816 257.259 120.005 253.938 118.333 250.115C116.731 246.451 115.445 242.765 114.932 240.518C114.357 234.384 114.186 230.242 114.582 226.343C114.979 222.434 115.96 218.629 117.865 213.204C124.694 193.759 144.964 185.661 165.591 189.044C181.461 191.646 192.363 201.468 197.476 216.298C203.202 232.905 201.49 248.869 189.018 262.123C180.537 271.136 169.81 274.05 156.792 274.035C142.795 274.019 132.076 269.027 123.165 258.807ZM347.579 206.197C358.54 221.2 358.882 241.476 348.305 257.687C339.531 267.319 330.758 273.451 318.738 273.864C305.628 274.315 294.192 273.34 284.652 264.655C275.554 256.372 273.208 245.345 271.843 232.991C270.761 211.761 281.617 197.171 295.29 191.683C314.78 183.86 335.804 190.08 347.579 206.197Z" stroke="url(#paint1_linear_825_393)" stroke-width="6"/>
<g filter="url(#filter0_d_825_393)">
<path d="M312.347 181.881C285.675 181.881 264.053 203.503 264.053 230.175C267.488 236.268 273.285 241.538 279.677 244.379C286.069 247.22 294.592 247.93 301.694 246.51C310.926 244.379 318.739 231.595 327.971 221.652C337.204 211.71 343.596 208.869 349.278 208.869C353.674 208.869 357.063 212.322 357.773 213.743C351.05 195.16 333.249 181.881 312.347 181.881Z" fill="url(#paint2_linear_825_393)" shape-rendering="crispEdges"/>
</g>
<g filter="url(#filter1_d_825_393)">
<path d="M360.547 233.213C360.609 232.208 360.641 231.195 360.641 230.175C360.641 224.406 359.629 218.872 357.773 213.743C357.063 212.323 353.674 208.869 349.277 208.869C343.596 208.869 337.204 211.71 327.971 221.653C318.738 231.596 310.926 244.379 301.693 246.51C308.795 245.09 348.473 242.445 360.547 233.213Z" fill="url(#paint3_linear_825_393)" shape-rendering="crispEdges"/>
</g>
<g filter="url(#filter2_d_825_393)">
<path d="M312.347 278.469C337.999 278.469 358.98 258.469 360.547 233.212C348.473 242.445 308.796 245.089 301.694 246.51C294.592 247.93 286.069 247.22 279.677 244.379C273.285 241.538 267.488 236.268 264.053 230.175C264.053 256.847 285.675 278.469 312.347 278.469Z" fill="url(#paint4_linear_825_393)" shape-rendering="crispEdges"/>
</g>
<path d="M308.194 230.368C300.08 241.537 285.44 244.734 275.496 237.509C265.551 230.284 264.068 215.373 272.183 204.204C280.298 193.035 294.938 189.838 304.882 197.062C314.826 204.287 316.309 219.199 308.194 230.368Z" fill="url(#paint5_linear_825_393)"/>
<g filter="url(#filter3_d_825_393)">
<path d="M158.094 181.881C131.422 181.881 109.8 203.503 109.8 230.175C113.235 236.268 119.032 241.538 125.424 244.379C131.816 247.22 140.339 247.93 147.441 246.51C156.673 244.379 164.486 231.595 173.718 221.652C182.951 211.71 189.343 208.869 195.025 208.869C199.421 208.869 202.81 212.322 203.52 213.743C196.797 195.16 178.996 181.881 158.094 181.881Z" fill="url(#paint6_linear_825_393)" shape-rendering="crispEdges"/>
</g>
<g filter="url(#filter4_d_825_393)">
<path d="M206.294 233.213C206.356 232.208 206.388 231.195 206.388 230.175C206.388 224.406 205.376 218.872 203.52 213.743C202.81 212.323 199.421 208.869 195.024 208.869C189.343 208.869 182.951 211.71 173.718 221.653C164.485 231.596 156.673 244.379 147.44 246.51C154.542 245.09 194.22 242.445 206.294 233.213Z" fill="url(#paint7_linear_825_393)" shape-rendering="crispEdges"/>
</g>
<g filter="url(#filter5_d_825_393)">
<path d="M158.094 278.469C183.746 278.469 204.727 258.469 206.294 233.212C194.22 242.445 154.543 245.089 147.441 246.51C140.339 247.93 131.816 247.22 125.424 244.379C119.032 241.538 113.235 236.268 109.8 230.175C109.8 256.847 131.422 278.469 158.094 278.469Z" fill="url(#paint8_linear_825_393)" shape-rendering="crispEdges"/>
</g>
<path d="M153.942 230.368C145.827 241.537 131.187 244.734 121.243 237.509C111.299 230.284 109.815 215.373 117.93 204.204C126.045 193.035 140.685 189.838 150.629 197.062C160.573 204.287 162.056 219.199 153.942 230.368Z" fill="url(#paint9_linear_825_393)"/>
<defs>
<filter id="filter0_d_825_393" x="244.053" y="161.881" width="133.721" height="105.339" filterUnits="userSpaceOnUse" color-interpolation-filters="sRGB">
<feFlood flood-opacity="0" result="BackgroundImageFix"/>
<feColorMatrix in="SourceAlpha" type="matrix" values="0 0 0 0 0 0 0 0 0 0 0 0 0 0 0 0 0 0 127 0" result="hardAlpha"/>
<feOffset/>
<feGaussianBlur stdDeviation="10"/>
<feComposite in2="hardAlpha" operator="out"/>
<feColorMatrix type="matrix" values="0 0 0 0 0.992157 0 0 0 0 0.682353 0 0 0 0 0.396078 0 0 0 1 0"/>
<feBlend mode="normal" in2="BackgroundImageFix" result="effect1_dropShadow_825_393"/>
<feBlend mode="normal" in="SourceGraphic" in2="effect1_dropShadow_825_393" result="shape"/>
</filter>
<filter id="filter1_d_825_393" x="281.693" y="188.869" width="98.9473" height="77.6406" filterUnits="userSpaceOnUse" color-interpolation-filters="sRGB">
<feFlood flood-opacity="0" result="BackgroundImageFix"/>
<feColorMatrix in="SourceAlpha" type="matrix" values="0 0 0 0 0 0 0 0 0 0 0 0 0 0 0 0 0 0 127 0" result="hardAlpha"/>
<feOffset/>
<feGaussianBlur stdDeviation="10"/>
<feComposite in2="hardAlpha" operator="out"/>
<feColorMatrix type="matrix" values="0 0 0 0 0.976471 0 0 0 0 0.278431 0 0 0 0 0.431373 0 0 0 1 0"/>
<feBlend mode="normal" in2="BackgroundImageFix" result="effect1_dropShadow_825_393"/>
<feBlend mode="normal" in="SourceGraphic" in2="effect1_dropShadow_825_393" result="shape"/>
</filter>
<filter id="filter2_d_825_393" x="244.053" y="164.881" width="136.588" height="136.588" filterUnits="userSpaceOnUse" color-interpolation-filters="sRGB">
<feFlood flood-opacity="0" result="BackgroundImageFix"/>
<feColorMatrix in="SourceAlpha" type="matrix" values="0 0 0 0 0 0 0 0 0 0 0 0 0 0 0 0 0 0 127 0" result="hardAlpha"/>
<feOffset dy="3"/>
<feGaussianBlur stdDeviation="10"/>
<feComposite in2="hardAlpha" operator="out"/>
<feColorMatrix type="matrix" values="0 0 0 0 0.521569 0 0 0 0 0.0862745 0 0 0 0 0.854902 0 0 0 1 0"/>
<feBlend mode="normal" in2="BackgroundImageFix" result="effect1_dropShadow_825_393"/>
<feBlend mode="normal" in="SourceGraphic" in2="effect1_dropShadow_825_393" result="shape"/>
</filter>
<filter id="filter3_d_825_393" x="89.7998" y="161.881" width="133.721" height="105.339" filterUnits="userSpaceOnUse" color-interpolation-filters="sRGB">
<feFlood flood-opacity="0" result="BackgroundImageFix"/>
<feColorMatrix in="SourceAlpha" type="matrix" values="0 0 0 0 0 0 0 0 0 0 0 0 0 0 0 0 0 0 127 0" result="hardAlpha"/>
<feOffset/>
<feGaussianBlur stdDeviation="10"/>
<feComposite in2="hardAlpha" operator="out"/>
<feColorMatrix type="matrix" values="0 0 0 0 0.992157 0 0 0 0 0.682353 0 0 0 0 0.396078 0 0 0 1 0"/>
<feBlend mode="normal" in2="BackgroundImageFix" result="effect1_dropShadow_825_393"/>
<feBlend mode="normal" in="SourceGraphic" in2="effect1_dropShadow_825_393" result="shape"/>
</filter>
<filter id="filter4_d_825_393" x="127.44" y="188.869" width="98.9473" height="77.6406" filterUnits="userSpaceOnUse" color-interpolation-filters="sRGB">
<feFlood flood-opacity="0" result="BackgroundImageFix"/>
<feColorMatrix in="SourceAlpha" type="matrix" values="0 0 0 0 0 0 0 0 0 0 0 0 0 0 0 0 0 0 127 0" result="hardAlpha"/>
<feOffset/>
<feGaussianBlur stdDeviation="10"/>
<feComposite in2="hardAlpha" operator="out"/>
<feColorMatrix type="matrix" values="0 0 0 0 0.976471 0 0 0 0 0.278431 0 0 0 0 0.431373 0 0 0 1 0"/>
<feBlend mode="normal" in2="BackgroundImageFix" result="effect1_dropShadow_825_393"/>
<feBlend mode="normal" in="SourceGraphic" in2="effect1_dropShadow_825_393" result="shape"/>
</filter>
<filter id="filter5_d_825_393" x="89.7998" y="164.881" width="136.588" height="136.588" filterUnits="userSpaceOnUse" color-interpolation-filters="sRGB">
<feFlood flood-opacity="0" result="BackgroundImageFix"/>
<feColorMatrix in="SourceAlpha" type="matrix" values="0 0 0 0 0 0 0 0 0 0 0 0 0 0 0 0 0 0 127 0" result="hardAlpha"/>
<feOffset dy="3"/>
<feGaussianBlur stdDeviation="10"/>
<feComposite in2="hardAlpha" operator="out"/>
<feColorMatrix type="matrix" values="0 0 0 0 0.521569 0 0 0 0 0.0862745 0 0 0 0 0.854902 0 0 0 1 0"/>
<feBlend mode="normal" in2="BackgroundImageFix" result="effect1_dropShadow_825_393"/>
<feBlend mode="normal" in="SourceGraphic" in2="effect1_dropShadow_825_393" result="shape"/>
</filter>
<linearGradient id="paint0_linear_825_393" x1="234.5" y1="10.3291" x2="234.5" y2="458.671" gradientUnits="userSpaceOnUse">
<stop stop-color="#FDBA72"/>
<stop offset="0.48" stop-color="#DC3674"/>
<stop offset="1" stop-color="#3B25C1"/>
</linearGradient>
<linearGradient id="paint1_linear_825_393" x1="228.733" y1="16.0953" x2="245.312" y2="462.996" gradientUnits="userSpaceOnUse">
<stop stop-color="#FDBD72"/>
<stop offset="0.49" stop-color="#DA3576"/>
<stop offset="1" stop-color="#3825C3"/>
</linearGradient>
<linearGradient id="paint2_linear_825_393" x1="310.913" y1="181.881" x2="310.913" y2="247.22" gradientUnits="userSpaceOnUse">
<stop stop-color="#FDB366"/>
<stop offset="1" stop-color="#FC8D59"/>
</linearGradient>
<linearGradient id="paint3_linear_825_393" x1="331.167" y1="208.869" x2="331.167" y2="246.51" gradientUnits="userSpaceOnUse">
<stop stop-color="#F7496C"/>
<stop offset="1" stop-color="#FB4470"/>
</linearGradient>
<linearGradient id="paint4_linear_825_393" x1="312.347" y1="181.881" x2="312.347" y2="278.469" gradientUnits="userSpaceOnUse">
<stop stop-color="#8815D2"/>
<stop offset="1" stop-color="#8415DB"/>
</linearGradient>
<linearGradient id="paint5_linear_825_393" x1="298.142" y1="191.823" x2="289.62" y2="240.828" gradientUnits="userSpaceOnUse">
<stop stop-color="#FDBC6B" stop-opacity="0"/>
<stop offset="0.695" stop-color="#FBE398"/>
</linearGradient>
<linearGradient id="paint6_linear_825_393" x1="156.66" y1="181.881" x2="156.66" y2="247.22" gradientUnits="userSpaceOnUse">
<stop stop-color="#FDB366"/>
<stop offset="1" stop-color="#FC8D59"/>
</linearGradient>
<linearGradient id="paint7_linear_825_393" x1="176.914" y1="208.869" x2="176.914" y2="246.51" gradientUnits="userSpaceOnUse">
<stop stop-color="#F7496C"/>
<stop offset="1" stop-color="#FB4470"/>
</linearGradient>
<linearGradient id="paint8_linear_825_393" x1="158.094" y1="181.881" x2="158.094" y2="278.469" gradientUnits="userSpaceOnUse">
<stop stop-color="#8815D2"/>
<stop offset="1" stop-color="#8415DB"/>
</linearGradient>
<linearGradient id="paint9_linear_825_393" x1="143.889" y1="191.823" x2="135.367" y2="240.828" gradientUnits="userSpaceOnUse">
<stop stop-color="#FDBC6B" stop-opacity="0"/>
<stop offset="0.695" stop-color="#FBE398"/>
</linearGradient>
</defs>
</svg>
