<svg width="11" height="11" viewBox="0 0 11 11" fill="none" xmlns="http://www.w3.org/2000/svg">
<path id="&#195;&#151;" d="M0.646447 0.973151C0.552678 1.06692 0.5 1.1941 0.5 1.3267C0.5 1.45931 0.552678 1.58649 0.646447 1.68026L4.13522 5.16903L0.646447 8.65781C0.552678 8.75158 0.5 8.87876 0.5 9.01136C0.5 9.14397 0.552679 9.27115 0.646447 9.36492L0.973151 9.69162C1.16841 9.88688 1.485 9.88688 1.68026 9.69162L5.16903 6.20285L8.65781 9.69162C8.85307 9.88688 9.16965 9.88688 9.36492 9.69162L9.69162 9.36492C9.78539 9.27115 9.83807 9.14397 9.83807 9.01136C9.83807 8.87876 9.78539 8.75158 9.69162 8.65781L6.20285 5.16903L9.69162 1.68026C9.78539 1.58649 9.83807 1.45931 9.83807 1.3267C9.83807 1.1941 9.78539 1.06692 9.69162 0.973151L9.36492 0.646446C9.16965 0.451184 8.85307 0.451185 8.65781 0.646447L5.16903 4.13522L1.68026 0.646447C1.485 0.451185 1.16841 0.451184 0.973151 0.646447L0.646447 0.973151Z" fill="white" stroke="white" stroke-linejoin="round"/>
</svg>
